<?xml version="1.0" encoding="UTF-8" standalone="no"?>
<!DOCTYPE svg PUBLIC "-//W3C//DTD SVG 1.1//EN"
 "http://www.w3.org/Graphics/SVG/1.1/DTD/svg11.dtd">
<!-- Generated by graphviz version 2.40.1 (20161225.0304)
 -->
<!-- Title: G Pages: 1 -->
<svg width="1030pt" height="499pt"
 viewBox="0.00 0.00 1030.00 499.00" xmlns="http://www.w3.org/2000/svg" xmlns:xlink="http://www.w3.org/1999/xlink">
<g id="graph0" class="graph" transform="scale(1 1) rotate(0) translate(4 495)">
<title>G</title>
<polygon fill="#ffffff" stroke="transparent" points="-4,4 -4,-495 1026,-495 1026,4 -4,4"/>
<g id="clust1" class="cluster">
<title>cluster_root</title>
<g id="a_clust1"><a xlink:title="eventq_index=0&#10;full_system=false&#10;sim_quantum=0&#10;time_sync_enable=false&#10;time_sync_period=100000000000&#10;time_sync_spin_threshold=100000000">
<path fill="#bab6ae" stroke="#000000" d="M20,-8C20,-8 1002,-8 1002,-8 1008,-8 1014,-14 1014,-20 1014,-20 1014,-471 1014,-471 1014,-477 1008,-483 1002,-483 1002,-483 20,-483 20,-483 14,-483 8,-477 8,-471 8,-471 8,-20 8,-20 8,-14 14,-8 20,-8"/>
<text text-anchor="middle" x="511" y="-467.8" font-family="Arial" font-size="14.00" fill="#000000">root </text>
<text text-anchor="middle" x="511" y="-452.8" font-family="Arial" font-size="14.00" fill="#000000">: Root</text>
</a>
</g>
</g>
<g id="clust2" class="cluster">
<title>cluster_system</title>
<g id="a_clust2"><a xlink:title="boot_osflags=a&#10;cache_line_size=64&#10;eventq_index=0&#10;exit_on_work_items=false&#10;init_param=0&#10;kernel=&#10;kernel_addr_check=true&#10;kernel_extras=&#10;&#10;oad_addr_mask=18446744073709551615&#10;&#10;oad_offset=0&#10;mem_mode=timing&#10;mem_ranges=0:536870911&#10;memories=system.mem_ctrls&#10;mmap_using_noreserve=false&#10;multi_thread=false&#10;&#10;um_work_ids=16&#10;&#13;eadfile=&#10;&#13;edirect_paths=system.redirect_paths0 system.redirect_paths1 system.redirect_paths2 system.redirect_paths3&#10;symbolfile=&#10;thermal_components=&#10;thermal_model=Null&#10;work_begin_ckpt_count=0&#10;work_begin_cpu_id_exit=&#45;1&#10;work_begin_exit_count=0&#10;work_cpus_ckpt_count=0&#10;work_end_ckpt_count=0&#10;work_end_exit_count=0&#10;work_item_id=&#45;1">
<path fill="#e4e7eb" stroke="#000000" d="M28,-16C28,-16 994,-16 994,-16 1000,-16 1006,-22 1006,-28 1006,-28 1006,-425 1006,-425 1006,-431 1000,-437 994,-437 994,-437 28,-437 28,-437 22,-437 16,-431 16,-425 16,-425 16,-28 16,-28 16,-22 22,-16 28,-16"/>
<text text-anchor="middle" x="511" y="-421.8" font-family="Arial" font-size="14.00" fill="#000000">system </text>
<text text-anchor="middle" x="511" y="-406.8" font-family="Arial" font-size="14.00" fill="#000000">: System</text>
</a>
</g>
</g>
<g id="clust3" class="cluster">
<title>cluster_system_membus</title>
<g id="a_clust3"><a xlink:title="clk_domain=system.clk_domain&#10;default_p_state=UNDEFINED&#10;eventq_index=0&#10;forward_latency=4&#10;frontend_latency=3&#10;max_outstanding_snoops=512&#10;max_routing_table_size=512&#10;p_state_clk_gate_bins=20&#10;p_state_clk_gate_max=1000000000000&#10;p_state_clk_gate_min=1000&#10;point_of_coherency=true&#10;point_of_unification=true&#10;power_model=&#10;&#13;esponse_latency=2&#10;snoop_filter=system.membus.snoop_filter&#10;snoop_response_latency=4&#10;system=system&#10;use_default_range=false&#10;width=16">
<path fill="#6f798c" stroke="#000000" d="M36,-163C36,-163 162,-163 162,-163 168,-163 174,-169 174,-175 174,-175 174,-242 174,-242 174,-248 168,-254 162,-254 162,-254 36,-254 36,-254 30,-254 24,-248 24,-242 24,-242 24,-175 24,-175 24,-169 30,-163 36,-163"/>
<text text-anchor="middle" x="99" y="-238.8" font-family="Arial" font-size="14.00" fill="#000000">membus </text>
<text text-anchor="middle" x="99" y="-223.8" font-family="Arial" font-size="14.00" fill="#000000">: SystemXBar</text>
</a>
</g>
</g>
<g id="clust12" class="cluster">
<title>cluster_system_mem_ctrls</title>
<g id="a_clust12"><a xlink:title="IDD0=0.055&#10;IDD02=0.0&#10;IDD2N=0.032&#10;IDD2N2=0.0&#10;IDD2P0=0.0&#10;IDD2P02=0.0&#10;IDD2P1=0.032&#10;IDD2P12=0.0&#10;IDD3N=0.038&#10;IDD3N2=0.0&#10;IDD3P0=0.0&#10;IDD3P02=0.0&#10;IDD3P1=0.038&#10;IDD3P12=0.0&#10;IDD4R=0.157&#10;IDD4R2=0.0&#10;IDD4W=0.125&#10;IDD4W2=0.0&#10;IDD5=0.235&#10;IDD52=0.0&#10;IDD6=0.02&#10;IDD62=0.0&#10;VDD=1.5&#10;VDD2=0.0&#10;activation_limit=4&#10;addr_mapping=RoRaBaCoCh&#10;bank_groups_per_rank=0&#10;banks_per_rank=8&#10;burst_length=8&#10;clk_domain=system.clk_domain&#10;conf_table_reported=true&#10;default_p_state=UNDEFINED&#10;device_bus_width=8&#10;device_rowbuffer_size=1024&#10;device_size=536870912&#10;devices_per_rank=8&#10;dll=true&#10;enable_dram_powerdown=false&#10;eventq_index=0&#10;in_addr_map=true&#10;kvm_map=true&#10;max_accesses_per_row=16&#10;mem_sched_policy=frfcfs&#10;min_writes_per_switch=16&#10;&#10;ull=false&#10;p_state_clk_gate_bins=20&#10;p_state_clk_gate_max=1000000000000&#10;p_state_clk_gate_min=1000&#10;page_policy=open_adaptive&#10;power_model=&#10;qos_masters= &#160;&#160;&#160;&#160;&#160;&#160;&#160;&#160;&#160;&#160;&#160;&#160;&#160;&#160;&#10;qos_policy=Null&#10;qos_priorities=1&#10;qos_priority_escalation=false&#10;qos_q_policy=fifo&#10;qos_syncro_scheduler=false&#10;qos_turnaround_policy=Null&#10;&#13;ange=0:536870911&#10;&#13;anks_per_channel=2&#10;&#13;ead_buffer_size=32&#10;static_backend_latency=10000&#10;static_frontend_latency=10000&#10;tBURST=5000&#10;tCCD_L=0&#10;tCCD_L_WR=0&#10;tCK=1250&#10;tCL=13750&#10;tCS=2500&#10;tRAS=35000&#10;tRCD=13750&#10;tREFI=7800000&#10;tRFC=260000&#10;tRP=13750&#10;tRRD=6000&#10;tRRD_L=0&#10;tRTP=7500&#10;tRTW=2500&#10;tWR=15000&#10;tWTR=7500&#10;tXAW=30000&#10;tXP=6000&#10;tXPDLL=0&#10;tXS=270000&#10;tXSDLL=0&#10;write_buffer_size=64&#10;write_high_thresh_perc=85&#10;write_low_thresh_perc=50">
<path fill="#5e5958" stroke="#000000" d="M38,-32C38,-32 151,-32 151,-32 157,-32 163,-38 163,-44 163,-44 163,-111 163,-111 163,-117 157,-123 151,-123 151,-123 38,-123 38,-123 32,-123 26,-117 26,-111 26,-111 26,-44 26,-44 26,-38 32,-32 38,-32"/>
<text text-anchor="middle" x="94.5" y="-107.8" font-family="Arial" font-size="14.00" fill="#000000">mem_ctrls </text>
<text text-anchor="middle" x="94.5" y="-92.8" font-family="Arial" font-size="14.00" fill="#000000">: DDR3_1600_8x8</text>
</a>
</g>
</g>
<g id="clust15" class="cluster">
<title>cluster_system_cpu</title>
<g id="a_clust15"><a xlink:title="branchPred=system.cpu.branchPred&#10;checker=Null&#10;clk_domain=system.cpu_clk_domain&#10;cpu_id=0&#10;decodeCycleInput=true&#10;decodeInputBufferSize=3&#10;decodeInputWidth=2&#10;decodeToExecuteForwardDelay=1&#10;default_p_state=UNDEFINED&#10;do_checkpoint_insts=true&#10;do_quiesce=true&#10;do_statistics_insts=true&#10;dtb=system.cpu.dtb&#10;enableIdling=true&#10;eventq_index=0&#10;executeAllowEarlyMemoryIssue=true&#10;executeBranchDelay=1&#10;executeCommitLimit=2&#10;executeCycleInput=true&#10;executeFuncUnits=system.cpu.executeFuncUnits&#10;executeInputBufferSize=7&#10;executeInputWidth=2&#10;executeIssueLimit=2&#10;executeLSQMaxStoreBufferStoresPerCycle=2&#10;executeLSQRequestsQueueSize=1&#10;executeLSQStoreBufferSize=5&#10;executeLSQTransfersQueueSize=2&#10;executeMaxAccessesInMemory=2&#10;executeMemoryCommitLimit=1&#10;executeMemoryIssueLimit=1&#10;executeMemoryWidth=0&#10;executeSetTraceTimeOnCommit=true&#10;executeSetTraceTimeOnIssue=false&#10;fetch1FetchLimit=1&#10;fetch1LineSnapWidth=0&#10;fetch1LineWidth=0&#10;fetch1ToFetch2BackwardDelay=1&#10;fetch1ToFetch2ForwardDelay=1&#10;fetch2CycleInput=true&#10;fetch2InputBufferSize=2&#10;fetch2ToDecodeForwardDelay=1&#10;function_trace=false&#10;function_trace_start=0&#10;interrupts=system.cpu.interrupts&#10;isa=system.cpu.isa&#10;itb=system.cpu.itb&#10;max_insts_all_threads=0&#10;max_insts_any_thread=0&#10;&#10;umThreads=1&#10;p_state_clk_gate_bins=20&#10;p_state_clk_gate_max=1000000000000&#10;p_state_clk_gate_min=1000&#10;power_gating_on_idle=false&#10;power_model=&#10;profile=0&#10;progress_interval=0&#10;pwr_gating_latency=300&#10;simpoint_start_insts=&#10;socket_id=0&#10;switched_out=false&#10;syscallRetryLatency=10000&#10;system=system&#10;threadPolicy=RoundRobin&#10;tracer=system.cpu.tracer&#10;wait_for_remote_gdb=false&#10;workload=system.cpu.workload">
<path fill="#bbc6d9" stroke="#000000" d="M194,-24C194,-24 986,-24 986,-24 992,-24 998,-30 998,-36 998,-36 998,-334 998,-334 998,-340 992,-346 986,-346 986,-346 194,-346 194,-346 188,-346 182,-340 182,-334 182,-334 182,-36 182,-36 182,-30 188,-24 194,-24"/>
<text text-anchor="middle" x="590" y="-330.8" font-family="Arial" font-size="14.00" fill="#000000">cpu </text>
<text text-anchor="middle" x="590" y="-315.8" font-family="Arial" font-size="14.00" fill="#000000">: HPI</text>
</a>
</g>
</g>
<g id="clust17" class="cluster">
<title>cluster_system_cpu_dtb</title>
<g id="a_clust17"><a xlink:title="eventq_index=0&#10;is_stage2=false&#10;size=256&#10;sys=system&#10;walker=system.cpu.dtb.walker">
<path fill="#bab6ae" stroke="#000000" d="M856,-155C856,-155 977,-155 977,-155 983,-155 989,-161 989,-167 989,-167 989,-288 989,-288 989,-294 983,-300 977,-300 977,-300 856,-300 856,-300 850,-300 844,-294 844,-288 844,-288 844,-167 844,-167 844,-161 850,-155 856,-155"/>
<text text-anchor="middle" x="916.5" y="-284.8" font-family="Arial" font-size="14.00" fill="#000000">dtb </text>
<text text-anchor="middle" x="916.5" y="-269.8" font-family="Arial" font-size="14.00" fill="#000000">: HPI_DTB</text>
</a>
</g>
</g>
<g id="clust18" class="cluster">
<title>cluster_system_cpu_dtb_walker</title>
<g id="a_clust18"><a xlink:title="clk_domain=system.cpu_clk_domain&#10;default_p_state=UNDEFINED&#10;eventq_index=0&#10;is_stage2=false&#10;&#10;um_squash_per_cycle=2&#10;p_state_clk_gate_bins=20&#10;p_state_clk_gate_max=1000000000000&#10;p_state_clk_gate_min=1000&#10;power_model=&#10;sys=system">
<path fill="#9f9c95" stroke="#000000" d="M864,-163C864,-163 969,-163 969,-163 975,-163 981,-169 981,-175 981,-175 981,-242 981,-242 981,-248 975,-254 969,-254 969,-254 864,-254 864,-254 858,-254 852,-248 852,-242 852,-242 852,-175 852,-175 852,-169 858,-163 864,-163"/>
<text text-anchor="middle" x="916.5" y="-238.8" font-family="Arial" font-size="14.00" fill="#000000">walker </text>
<text text-anchor="middle" x="916.5" y="-223.8" font-family="Arial" font-size="14.00" fill="#000000">: ArmTableWalker</text>
</a>
</g>
</g>
<g id="clust23" class="cluster">
<title>cluster_system_cpu_itb_walker_cache</title>
<g id="a_clust23"><a xlink:title="addr_ranges=0:18446744073709551615&#10;assoc=8&#10;clk_domain=system.cpu_clk_domain&#10;clusivity=mostly_incl&#10;compressor=Null&#10;data_latency=4&#10;default_p_state=UNDEFINED&#10;demand_mshr_reserve=1&#10;eventq_index=0&#10;is_read_only=false&#10;max_miss_count=0&#10;mshrs=6&#10;p_state_clk_gate_bins=20&#10;p_state_clk_gate_max=1000000000000&#10;p_state_clk_gate_min=1000&#10;power_model=&#10;prefetch_on_access=false&#10;prefetcher=Null&#10;&#13;eplacement_policy=system.cpu.itb_walker_cache.replacement_policy&#10;&#13;esponse_latency=4&#10;sequential_access=false&#10;size=1024&#10;system=system&#10;tag_latency=4&#10;tags=system.cpu.itb_walker_cache.tags&#10;tgts_per_mshr=8&#10;warmup_percentage=0&#10;write_allocator=Null&#10;write_buffers=16&#10;writeback_clean=false">
<path fill="#bab6ae" stroke="#000000" d="M606,-32C606,-32 776,-32 776,-32 782,-32 788,-38 788,-44 788,-44 788,-111 788,-111 788,-117 782,-123 776,-123 776,-123 606,-123 606,-123 600,-123 594,-117 594,-111 594,-111 594,-44 594,-44 594,-38 600,-32 606,-32"/>
<text text-anchor="middle" x="691" y="-107.8" font-family="Arial" font-size="14.00" fill="#000000">itb_walker_cache </text>
<text text-anchor="middle" x="691" y="-92.8" font-family="Arial" font-size="14.00" fill="#000000">: HPI_WalkCache</text>
</a>
</g>
</g>
<g id="clust27" class="cluster">
<title>cluster_system_cpu_itb</title>
<g id="a_clust27"><a xlink:title="eventq_index=0&#10;is_stage2=false&#10;size=256&#10;sys=system&#10;walker=system.cpu.itb.walker">
<path fill="#bab6ae" stroke="#000000" d="M678,-155C678,-155 799,-155 799,-155 805,-155 811,-161 811,-167 811,-167 811,-288 811,-288 811,-294 805,-300 799,-300 799,-300 678,-300 678,-300 672,-300 666,-294 666,-288 666,-288 666,-167 666,-167 666,-161 672,-155 678,-155"/>
<text text-anchor="middle" x="738.5" y="-284.8" font-family="Arial" font-size="14.00" fill="#000000">itb </text>
<text text-anchor="middle" x="738.5" y="-269.8" font-family="Arial" font-size="14.00" fill="#000000">: HPI_ITB</text>
</a>
</g>
</g>
<g id="clust28" class="cluster">
<title>cluster_system_cpu_itb_walker</title>
<g id="a_clust28"><a xlink:title="clk_domain=system.cpu_clk_domain&#10;default_p_state=UNDEFINED&#10;eventq_index=0&#10;is_stage2=false&#10;&#10;um_squash_per_cycle=2&#10;p_state_clk_gate_bins=20&#10;p_state_clk_gate_max=1000000000000&#10;p_state_clk_gate_min=1000&#10;power_model=&#10;sys=system">
<path fill="#9f9c95" stroke="#000000" d="M686,-163C686,-163 791,-163 791,-163 797,-163 803,-169 803,-175 803,-175 803,-242 803,-242 803,-248 797,-254 791,-254 791,-254 686,-254 686,-254 680,-254 674,-248 674,-242 674,-242 674,-175 674,-175 674,-169 680,-163 686,-163"/>
<text text-anchor="middle" x="738.5" y="-238.8" font-family="Arial" font-size="14.00" fill="#000000">walker </text>
<text text-anchor="middle" x="738.5" y="-223.8" font-family="Arial" font-size="14.00" fill="#000000">: ArmTableWalker</text>
</a>
</g>
</g>
<g id="clust32" class="cluster">
<title>cluster_system_cpu_dtb_walker_cache</title>
<g id="a_clust32"><a xlink:title="addr_ranges=0:18446744073709551615&#10;assoc=8&#10;clk_domain=system.cpu_clk_domain&#10;clusivity=mostly_incl&#10;compressor=Null&#10;data_latency=4&#10;default_p_state=UNDEFINED&#10;demand_mshr_reserve=1&#10;eventq_index=0&#10;is_read_only=false&#10;max_miss_count=0&#10;mshrs=6&#10;p_state_clk_gate_bins=20&#10;p_state_clk_gate_max=1000000000000&#10;p_state_clk_gate_min=1000&#10;power_model=&#10;prefetch_on_access=false&#10;prefetcher=Null&#10;&#13;eplacement_policy=system.cpu.dtb_walker_cache.replacement_policy&#10;&#13;esponse_latency=4&#10;sequential_access=false&#10;size=1024&#10;system=system&#10;tag_latency=4&#10;tags=system.cpu.dtb_walker_cache.tags&#10;tgts_per_mshr=8&#10;warmup_percentage=0&#10;write_allocator=Null&#10;write_buffers=16&#10;writeback_clean=false">
<path fill="#bab6ae" stroke="#000000" d="M808,-32C808,-32 978,-32 978,-32 984,-32 990,-38 990,-44 990,-44 990,-111 990,-111 990,-117 984,-123 978,-123 978,-123 808,-123 808,-123 802,-123 796,-117 796,-111 796,-111 796,-44 796,-44 796,-38 802,-32 808,-32"/>
<text text-anchor="middle" x="893" y="-107.8" font-family="Arial" font-size="14.00" fill="#000000">dtb_walker_cache </text>
<text text-anchor="middle" x="893" y="-92.8" font-family="Arial" font-size="14.00" fill="#000000">: HPI_WalkCache</text>
</a>
</g>
</g>
<g id="clust36" class="cluster">
<title>cluster_system_cpu_icache</title>
<g id="a_clust36"><a xlink:title="addr_ranges=0:18446744073709551615&#10;assoc=2&#10;clk_domain=system.cpu_clk_domain&#10;clusivity=mostly_incl&#10;compressor=Null&#10;data_latency=1&#10;default_p_state=UNDEFINED&#10;demand_mshr_reserve=1&#10;eventq_index=0&#10;is_read_only=false&#10;max_miss_count=0&#10;mshrs=2&#10;p_state_clk_gate_bins=20&#10;p_state_clk_gate_max=1000000000000&#10;p_state_clk_gate_min=1000&#10;power_model=&#10;prefetch_on_access=false&#10;prefetcher=Null&#10;&#13;eplacement_policy=system.cpu.icache.replacement_policy&#10;&#13;esponse_latency=1&#10;sequential_access=false&#10;size=32768&#10;system=system&#10;tag_latency=1&#10;tags=system.cpu.icache.tags&#10;tgts_per_mshr=8&#10;warmup_percentage=0&#10;write_allocator=Null&#10;write_buffers=8&#10;writeback_clean=false">
<path fill="#bab6ae" stroke="#000000" d="M404,-32C404,-32 574,-32 574,-32 580,-32 586,-38 586,-44 586,-44 586,-111 586,-111 586,-117 580,-123 574,-123 574,-123 404,-123 404,-123 398,-123 392,-117 392,-111 392,-111 392,-44 392,-44 392,-38 398,-32 404,-32"/>
<text text-anchor="middle" x="489" y="-107.8" font-family="Arial" font-size="14.00" fill="#000000">icache </text>
<text text-anchor="middle" x="489" y="-92.8" font-family="Arial" font-size="14.00" fill="#000000">: HPI_ICache</text>
</a>
</g>
</g>
<g id="clust40" class="cluster">
<title>cluster_system_cpu_dcache</title>
<g id="a_clust40"><a xlink:title="addr_ranges=0:18446744073709551615&#10;assoc=2&#10;clk_domain=system.cpu_clk_domain&#10;clusivity=mostly_incl&#10;compressor=Null&#10;data_latency=1&#10;default_p_state=UNDEFINED&#10;demand_mshr_reserve=1&#10;eventq_index=0&#10;is_read_only=false&#10;max_miss_count=0&#10;mshrs=4&#10;p_state_clk_gate_bins=20&#10;p_state_clk_gate_max=1000000000000&#10;p_state_clk_gate_min=1000&#10;power_model=&#10;prefetch_on_access=false&#10;prefetcher=system.cpu.dcache.prefetcher&#10;&#13;eplacement_policy=system.cpu.dcache.replacement_policy&#10;&#13;esponse_latency=1&#10;sequential_access=false&#10;size=65536&#10;system=system&#10;tag_latency=1&#10;tags=system.cpu.dcache.tags&#10;tgts_per_mshr=8&#10;warmup_percentage=0&#10;write_allocator=Null&#10;write_buffers=4&#10;writeback_clean=false">
<path fill="#bab6ae" stroke="#000000" d="M202,-32C202,-32 372,-32 372,-32 378,-32 384,-38 384,-44 384,-44 384,-111 384,-111 384,-117 378,-123 372,-123 372,-123 202,-123 202,-123 196,-123 190,-117 190,-111 190,-111 190,-44 190,-44 190,-38 196,-32 202,-32"/>
<text text-anchor="middle" x="287" y="-107.8" font-family="Arial" font-size="14.00" fill="#000000">dcache </text>
<text text-anchor="middle" x="287" y="-92.8" font-family="Arial" font-size="14.00" fill="#000000">: HPI_DCache</text>
</a>
</g>
</g>
<!-- system_system_port -->
<g id="node1" class="node">
<title>system_system_port</title>
<path fill="#b6b8bc" stroke="#000000" d="M103,-354.5C103,-354.5 175,-354.5 175,-354.5 181,-354.5 187,-360.5 187,-366.5 187,-366.5 187,-378.5 187,-378.5 187,-384.5 181,-390.5 175,-390.5 175,-390.5 103,-390.5 103,-390.5 97,-390.5 91,-384.5 91,-378.5 91,-378.5 91,-366.5 91,-366.5 91,-360.5 97,-354.5 103,-354.5"/>
<text text-anchor="middle" x="139" y="-368.8" font-family="Arial" font-size="14.00" fill="#000000">system_port</text>
</g>
<!-- system_membus_slave -->
<g id="node3" class="node">
<title>system_membus_slave</title>
<path fill="#586070" stroke="#000000" d="M124,-171.5C124,-171.5 154,-171.5 154,-171.5 160,-171.5 166,-177.5 166,-183.5 166,-183.5 166,-195.5 166,-195.5 166,-201.5 160,-207.5 154,-207.5 154,-207.5 124,-207.5 124,-207.5 118,-207.5 112,-201.5 112,-195.5 112,-195.5 112,-183.5 112,-183.5 112,-177.5 118,-171.5 124,-171.5"/>
<text text-anchor="middle" x="139" y="-185.8" font-family="Arial" font-size="14.00" fill="#000000">slave</text>
</g>
<!-- system_system_port&#45;&gt;system_membus_slave -->
<g id="edge1" class="edge">
<title>system_system_port&#45;&gt;system_membus_slave</title>
<path fill="none" stroke="#000000" d="M139,-354.2842C139,-322.3583 139,-256.0809 139,-218.0263"/>
<polygon fill="#000000" stroke="#000000" points="142.5001,-217.6421 139,-207.6421 135.5001,-217.6421 142.5001,-217.6421"/>
</g>
<!-- system_membus_master -->
<g id="node2" class="node">
<title>system_membus_master</title>
<path fill="#586070" stroke="#000000" d="M44.5,-171.5C44.5,-171.5 81.5,-171.5 81.5,-171.5 87.5,-171.5 93.5,-177.5 93.5,-183.5 93.5,-183.5 93.5,-195.5 93.5,-195.5 93.5,-201.5 87.5,-207.5 81.5,-207.5 81.5,-207.5 44.5,-207.5 44.5,-207.5 38.5,-207.5 32.5,-201.5 32.5,-195.5 32.5,-195.5 32.5,-183.5 32.5,-183.5 32.5,-177.5 38.5,-171.5 44.5,-171.5"/>
<text text-anchor="middle" x="63" y="-185.8" font-family="Arial" font-size="14.00" fill="#000000">master</text>
</g>
<!-- system_mem_ctrls_port -->
<g id="node4" class="node">
<title>system_mem_ctrls_port</title>
<path fill="#4b4746" stroke="#000000" d="M48,-40.5C48,-40.5 78,-40.5 78,-40.5 84,-40.5 90,-46.5 90,-52.5 90,-52.5 90,-64.5 90,-64.5 90,-70.5 84,-76.5 78,-76.5 78,-76.5 48,-76.5 48,-76.5 42,-76.5 36,-70.5 36,-64.5 36,-64.5 36,-52.5 36,-52.5 36,-46.5 42,-40.5 48,-40.5"/>
<text text-anchor="middle" x="63" y="-54.8" font-family="Arial" font-size="14.00" fill="#000000">port</text>
</g>
<!-- system_membus_master&#45;&gt;system_mem_ctrls_port -->
<g id="edge2" class="edge">
<title>system_membus_master&#45;&gt;system_mem_ctrls_port</title>
<path fill="none" stroke="#000000" d="M63,-171.285C63,-149.3856 63,-112.3861 63,-86.7663"/>
<polygon fill="#000000" stroke="#000000" points="66.5001,-86.5603 63,-76.5603 59.5001,-86.5603 66.5001,-86.5603"/>
</g>
<!-- system_cpu_itb_walker_cache_mem_side -->
<g id="node8" class="node">
<title>system_cpu_itb_walker_cache_mem_side</title>
<path fill="#94918b" stroke="#000000" d="M614,-40.5C614,-40.5 674,-40.5 674,-40.5 680,-40.5 686,-46.5 686,-52.5 686,-52.5 686,-64.5 686,-64.5 686,-70.5 680,-76.5 674,-76.5 674,-76.5 614,-76.5 614,-76.5 608,-76.5 602,-70.5 602,-64.5 602,-64.5 602,-52.5 602,-52.5 602,-46.5 608,-40.5 614,-40.5"/>
<text text-anchor="middle" x="644" y="-54.8" font-family="Arial" font-size="14.00" fill="#000000">mem_side</text>
</g>
<!-- system_membus_slave&#45;&gt;system_cpu_itb_walker_cache_mem_side -->
<g id="edge5" class="edge">
<title>system_membus_slave&#45;&gt;system_cpu_itb_walker_cache_mem_side</title>
<path fill="none" stroke="#000000" d="M162.3467,-164.6524C167.1542,-160.814 172.4547,-157.3503 178,-155 347.1013,-83.3292 426.7244,-207.1012 590,-123 609.7344,-112.8351 625.0713,-92.0022 634.2756,-76.7531"/>
<polygon fill="#000000" stroke="#000000" points="159.9524,-162.0972 154.7653,-171.3354 164.5813,-167.3483 159.9524,-162.0972"/>
</g>
<!-- system_cpu_dtb_walker_cache_mem_side -->
<g id="node11" class="node">
<title>system_cpu_dtb_walker_cache_mem_side</title>
<path fill="#94918b" stroke="#000000" d="M816,-40.5C816,-40.5 876,-40.5 876,-40.5 882,-40.5 888,-46.5 888,-52.5 888,-52.5 888,-64.5 888,-64.5 888,-70.5 882,-76.5 876,-76.5 876,-76.5 816,-76.5 816,-76.5 810,-76.5 804,-70.5 804,-64.5 804,-64.5 804,-52.5 804,-52.5 804,-46.5 810,-40.5 816,-40.5"/>
<text text-anchor="middle" x="846" y="-54.8" font-family="Arial" font-size="14.00" fill="#000000">mem_side</text>
</g>
<!-- system_membus_slave&#45;&gt;system_cpu_dtb_walker_cache_mem_side -->
<g id="edge6" class="edge">
<title>system_membus_slave&#45;&gt;system_cpu_dtb_walker_cache_mem_side</title>
<path fill="none" stroke="#000000" d="M162.2984,-164.5362C167.1106,-160.7093 172.4252,-157.2796 178,-155 304.4653,-103.2876 669.7505,-184.014 792,-123 811.9928,-113.0217 827.3763,-91.9317 836.5189,-76.576"/>
<polygon fill="#000000" stroke="#000000" points="159.9044,-161.9808 154.7167,-171.2186 164.5329,-167.2322 159.9044,-161.9808"/>
</g>
<!-- system_cpu_icache_mem_side -->
<g id="node13" class="node">
<title>system_cpu_icache_mem_side</title>
<path fill="#94918b" stroke="#000000" d="M412,-40.5C412,-40.5 472,-40.5 472,-40.5 478,-40.5 484,-46.5 484,-52.5 484,-52.5 484,-64.5 484,-64.5 484,-70.5 478,-76.5 472,-76.5 472,-76.5 412,-76.5 412,-76.5 406,-76.5 400,-70.5 400,-64.5 400,-64.5 400,-52.5 400,-52.5 400,-46.5 406,-40.5 412,-40.5"/>
<text text-anchor="middle" x="442" y="-54.8" font-family="Arial" font-size="14.00" fill="#000000">mem_side</text>
</g>
<!-- system_membus_slave&#45;&gt;system_cpu_icache_mem_side -->
<g id="edge3" class="edge">
<title>system_membus_slave&#45;&gt;system_cpu_icache_mem_side</title>
<path fill="none" stroke="#000000" d="M163.1181,-164.4858C167.742,-160.8085 172.7804,-157.4428 178,-155 263.5092,-114.9804 305.7189,-169.2947 388,-123 407.2192,-112.1865 422.5532,-91.689 431.8986,-76.6938"/>
<polygon fill="#000000" stroke="#000000" points="160.5295,-162.0992 155.2933,-171.3097 165.1304,-167.3749 160.5295,-162.0992"/>
</g>
<!-- system_cpu_dcache_mem_side -->
<g id="node15" class="node">
<title>system_cpu_dcache_mem_side</title>
<path fill="#94918b" stroke="#000000" d="M210,-40.5C210,-40.5 270,-40.5 270,-40.5 276,-40.5 282,-46.5 282,-52.5 282,-52.5 282,-64.5 282,-64.5 282,-70.5 276,-76.5 270,-76.5 270,-76.5 210,-76.5 210,-76.5 204,-76.5 198,-70.5 198,-64.5 198,-64.5 198,-52.5 198,-52.5 198,-46.5 204,-40.5 210,-40.5"/>
<text text-anchor="middle" x="240" y="-54.8" font-family="Arial" font-size="14.00" fill="#000000">mem_side</text>
</g>
<!-- system_membus_slave&#45;&gt;system_cpu_dcache_mem_side -->
<g id="edge4" class="edge">
<title>system_membus_slave&#45;&gt;system_cpu_dcache_mem_side</title>
<path fill="none" stroke="#000000" d="M159.3616,-163.0904C179.1907,-137.3714 208.7956,-98.973 226.0757,-76.5603"/>
<polygon fill="#000000" stroke="#000000" points="156.3777,-161.2284 153.0436,-171.285 161.9214,-165.5026 156.3777,-161.2284"/>
</g>
<!-- system_cpu_icache_port -->
<g id="node5" class="node">
<title>system_cpu_icache_port</title>
<path fill="#959ead" stroke="#000000" d="M506,-171.5C506,-171.5 574,-171.5 574,-171.5 580,-171.5 586,-177.5 586,-183.5 586,-183.5 586,-195.5 586,-195.5 586,-201.5 580,-207.5 574,-207.5 574,-207.5 506,-207.5 506,-207.5 500,-207.5 494,-201.5 494,-195.5 494,-195.5 494,-183.5 494,-183.5 494,-177.5 500,-171.5 506,-171.5"/>
<text text-anchor="middle" x="540" y="-185.8" font-family="Arial" font-size="14.00" fill="#000000">icache_port</text>
</g>
<!-- system_cpu_icache_cpu_side -->
<g id="node14" class="node">
<title>system_cpu_icache_cpu_side</title>
<path fill="#94918b" stroke="#000000" d="M514,-40.5C514,-40.5 566,-40.5 566,-40.5 572,-40.5 578,-46.5 578,-52.5 578,-52.5 578,-64.5 578,-64.5 578,-70.5 572,-76.5 566,-76.5 566,-76.5 514,-76.5 514,-76.5 508,-76.5 502,-70.5 502,-64.5 502,-64.5 502,-52.5 502,-52.5 502,-46.5 508,-40.5 514,-40.5"/>
<text text-anchor="middle" x="540" y="-54.8" font-family="Arial" font-size="14.00" fill="#000000">cpu_side</text>
</g>
<!-- system_cpu_icache_port&#45;&gt;system_cpu_icache_cpu_side -->
<g id="edge7" class="edge">
<title>system_cpu_icache_port&#45;&gt;system_cpu_icache_cpu_side</title>
<path fill="none" stroke="#000000" d="M540,-171.285C540,-149.3856 540,-112.3861 540,-86.7663"/>
<polygon fill="#000000" stroke="#000000" points="543.5001,-86.5603 540,-76.5603 536.5001,-86.5603 543.5001,-86.5603"/>
</g>
<!-- system_cpu_dcache_port -->
<g id="node6" class="node">
<title>system_cpu_dcache_port</title>
<path fill="#959ead" stroke="#000000" d="M301,-171.5C301,-171.5 375,-171.5 375,-171.5 381,-171.5 387,-177.5 387,-183.5 387,-183.5 387,-195.5 387,-195.5 387,-201.5 381,-207.5 375,-207.5 375,-207.5 301,-207.5 301,-207.5 295,-207.5 289,-201.5 289,-195.5 289,-195.5 289,-183.5 289,-183.5 289,-177.5 295,-171.5 301,-171.5"/>
<text text-anchor="middle" x="338" y="-185.8" font-family="Arial" font-size="14.00" fill="#000000">dcache_port</text>
</g>
<!-- system_cpu_dcache_cpu_side -->
<g id="node16" class="node">
<title>system_cpu_dcache_cpu_side</title>
<path fill="#94918b" stroke="#000000" d="M312,-40.5C312,-40.5 364,-40.5 364,-40.5 370,-40.5 376,-46.5 376,-52.5 376,-52.5 376,-64.5 376,-64.5 376,-70.5 370,-76.5 364,-76.5 364,-76.5 312,-76.5 312,-76.5 306,-76.5 300,-70.5 300,-64.5 300,-64.5 300,-52.5 300,-52.5 300,-46.5 306,-40.5 312,-40.5"/>
<text text-anchor="middle" x="338" y="-54.8" font-family="Arial" font-size="14.00" fill="#000000">cpu_side</text>
</g>
<!-- system_cpu_dcache_port&#45;&gt;system_cpu_dcache_cpu_side -->
<g id="edge8" class="edge">
<title>system_cpu_dcache_port&#45;&gt;system_cpu_dcache_cpu_side</title>
<path fill="none" stroke="#000000" d="M338,-171.285C338,-149.3856 338,-112.3861 338,-86.7663"/>
<polygon fill="#000000" stroke="#000000" points="341.5001,-86.5603 338,-76.5603 334.5001,-86.5603 341.5001,-86.5603"/>
</g>
<!-- system_cpu_dtb_walker_port -->
<g id="node7" class="node">
<title>system_cpu_dtb_walker_port</title>
<path fill="#7f7c77" stroke="#000000" d="M929,-171.5C929,-171.5 959,-171.5 959,-171.5 965,-171.5 971,-177.5 971,-183.5 971,-183.5 971,-195.5 971,-195.5 971,-201.5 965,-207.5 959,-207.5 959,-207.5 929,-207.5 929,-207.5 923,-207.5 917,-201.5 917,-195.5 917,-195.5 917,-183.5 917,-183.5 917,-177.5 923,-171.5 929,-171.5"/>
<text text-anchor="middle" x="944" y="-185.8" font-family="Arial" font-size="14.00" fill="#000000">port</text>
</g>
<!-- system_cpu_dtb_walker_cache_cpu_side -->
<g id="node12" class="node">
<title>system_cpu_dtb_walker_cache_cpu_side</title>
<path fill="#94918b" stroke="#000000" d="M918,-40.5C918,-40.5 970,-40.5 970,-40.5 976,-40.5 982,-46.5 982,-52.5 982,-52.5 982,-64.5 982,-64.5 982,-70.5 976,-76.5 970,-76.5 970,-76.5 918,-76.5 918,-76.5 912,-76.5 906,-70.5 906,-64.5 906,-64.5 906,-52.5 906,-52.5 906,-46.5 912,-40.5 918,-40.5"/>
<text text-anchor="middle" x="944" y="-54.8" font-family="Arial" font-size="14.00" fill="#000000">cpu_side</text>
</g>
<!-- system_cpu_dtb_walker_port&#45;&gt;system_cpu_dtb_walker_cache_cpu_side -->
<g id="edge9" class="edge">
<title>system_cpu_dtb_walker_port&#45;&gt;system_cpu_dtb_walker_cache_cpu_side</title>
<path fill="none" stroke="#000000" d="M944,-171.285C944,-149.3856 944,-112.3861 944,-86.7663"/>
<polygon fill="#000000" stroke="#000000" points="947.5001,-86.5603 944,-76.5603 940.5001,-86.5603 947.5001,-86.5603"/>
</g>
<!-- system_cpu_itb_walker_cache_cpu_side -->
<g id="node9" class="node">
<title>system_cpu_itb_walker_cache_cpu_side</title>
<path fill="#94918b" stroke="#000000" d="M716,-40.5C716,-40.5 768,-40.5 768,-40.5 774,-40.5 780,-46.5 780,-52.5 780,-52.5 780,-64.5 780,-64.5 780,-70.5 774,-76.5 768,-76.5 768,-76.5 716,-76.5 716,-76.5 710,-76.5 704,-70.5 704,-64.5 704,-64.5 704,-52.5 704,-52.5 704,-46.5 710,-40.5 716,-40.5"/>
<text text-anchor="middle" x="742" y="-54.8" font-family="Arial" font-size="14.00" fill="#000000">cpu_side</text>
</g>
<!-- system_cpu_itb_walker_port -->
<g id="node10" class="node">
<title>system_cpu_itb_walker_port</title>
<path fill="#7f7c77" stroke="#000000" d="M727,-171.5C727,-171.5 757,-171.5 757,-171.5 763,-171.5 769,-177.5 769,-183.5 769,-183.5 769,-195.5 769,-195.5 769,-201.5 763,-207.5 757,-207.5 757,-207.5 727,-207.5 727,-207.5 721,-207.5 715,-201.5 715,-195.5 715,-195.5 715,-183.5 715,-183.5 715,-177.5 721,-171.5 727,-171.5"/>
<text text-anchor="middle" x="742" y="-185.8" font-family="Arial" font-size="14.00" fill="#000000">port</text>
</g>
<!-- system_cpu_itb_walker_port&#45;&gt;system_cpu_itb_walker_cache_cpu_side -->
<g id="edge10" class="edge">
<title>system_cpu_itb_walker_port&#45;&gt;system_cpu_itb_walker_cache_cpu_side</title>
<path fill="none" stroke="#000000" d="M742,-171.285C742,-149.3856 742,-112.3861 742,-86.7663"/>
<polygon fill="#000000" stroke="#000000" points="745.5001,-86.5603 742,-76.5603 738.5001,-86.5603 745.5001,-86.5603"/>
</g>
</g>
</svg>
